<svg width="163" height="24" viewBox="0 0 163 24" fill="none" xmlns="http://www.w3.org/2000/svg">
<path d="M77.2843 5.73374V24.0001H73.9978V17.2516C73.9488 17.2786 73.9235 17.282 73.9151 17.2972C73.2251 18.4242 72.1875 19.0501 70.9154 19.2677C68.8538 19.6186 67.0486 19.0889 65.6095 17.53C64.7085 16.5532 64.2429 15.3621 64.0506 14.0647C63.8093 12.4535 63.8532 10.8592 64.4251 9.30703C65.1725 7.29094 66.5728 5.97836 68.7154 5.56671C70.2676 5.26978 71.7404 5.49417 73.0091 6.50643C73.3364 6.76793 73.581 7.13235 73.8611 7.44952C73.8932 7.48495 73.9185 7.52713 73.9826 7.61823V5.73374H77.2843ZM74.1429 12.4535C74.1429 11.5408 73.9876 10.6905 73.5473 9.90426C72.3562 7.77851 69.1777 7.62667 67.7926 9.63095C66.8107 11.0515 66.7516 13.5113 67.661 15.0095C68.9128 17.0728 72.0002 17.1774 73.3702 15.2052C73.9522 14.3684 74.1327 13.4219 74.1429 12.4535Z" fill="white"/>
<path d="M153.128 19.1039V16.7318L153.027 16.666C153.012 16.7149 153 16.7639 152.981 16.8094C152.531 17.9027 151.699 18.6045 150.619 19.0027C149.045 19.5729 147.468 19.5611 145.948 18.8103C144.855 18.2688 144.278 17.3375 144.175 16.1363C144.135 15.6856 144.155 15.2316 144.237 14.7866C144.465 13.5786 145.27 12.8548 146.365 12.4078C147.183 12.0703 148.052 11.932 148.915 11.8122C149.872 11.6823 150.829 11.5558 151.784 11.4107C152.738 11.2656 152.998 10.9602 152.983 9.98844C152.98 9.73654 152.955 9.48539 152.909 9.23769C152.862 8.91056 152.713 8.60647 152.484 8.36827C152.255 8.13006 151.957 7.96975 151.632 7.90992C150.891 7.7312 150.118 7.74281 149.383 7.94367C148.566 8.16974 148.143 8.70624 148.085 9.5498C148.085 9.65102 148.072 9.75225 148.063 9.88722H144.956C144.802 8.41269 145.229 7.03263 146.559 6.2127C147.313 5.7753 148.152 5.5065 149.02 5.42482C150.498 5.2443 151.973 5.24599 153.422 5.63233C154.805 6.00181 155.797 6.81331 156.138 8.25579C156.252 8.76188 156.308 9.27911 156.307 9.7978C156.322 12.8346 156.307 15.8815 156.307 18.9234C156.307 18.9807 156.307 19.0381 156.293 19.1056L153.128 19.1039ZM152.959 12.9071C152.62 13.0247 152.275 13.1232 151.925 13.2024C151.18 13.3323 150.422 13.3981 149.68 13.5398C149.166 13.6436 148.663 13.7938 148.177 13.9886C147.996 14.0617 147.836 14.1784 147.712 14.3283C147.587 14.4781 147.502 14.6564 147.463 14.8473C147.244 15.7466 147.709 16.5344 148.644 16.7909C149.583 17.0569 150.587 16.9637 151.461 16.5294C152.253 16.1413 152.84 15.539 152.953 14.6364C153.027 14.0578 152.968 13.4588 152.968 12.9071H152.959Z" fill="white"/>
<path d="M123.503 13.2717H113.857C113.957 15.3199 114.932 16.7522 116.952 16.9125C117.434 16.9502 117.92 16.9355 118.399 16.8686C119.288 16.7438 119.917 16.2326 120.289 15.4194C120.353 15.2794 120.41 15.136 120.474 14.9841H123.396C123.347 15.168 123.31 15.3418 123.256 15.5105C122.539 17.7037 121.006 18.9421 118.763 19.3335C117.52 19.5607 116.24 19.4896 115.03 19.126C113.08 18.5321 111.764 17.2702 111.15 15.3334C110.515 13.4181 110.532 11.3468 111.197 9.44198C111.953 7.24873 113.559 6.00871 115.809 5.592C117.042 5.34829 118.315 5.40617 119.521 5.76071C120.308 5.97827 121.033 6.37819 121.637 6.92806C122.241 7.47793 122.706 8.1623 122.996 8.92572C123.498 10.213 123.693 11.5991 123.567 12.9748C123.55 13.0659 123.523 13.157 123.503 13.2717ZM120.466 11.426C120.381 10.1792 120.111 9.02695 118.947 8.40272C118.387 8.08127 117.749 7.92248 117.104 7.94423C116.458 7.96599 115.832 8.16743 115.295 8.52588C114.256 9.18216 113.964 10.267 113.837 11.426H120.466Z" fill="white"/>
<path d="M62.2234 13.2717H52.536C52.5866 13.5956 52.617 13.8993 52.6828 14.1945C52.9123 15.2541 53.3981 16.1364 54.4357 16.6088C55.1336 16.9135 55.8991 17.0298 56.6559 16.9462C56.9631 16.9207 57.2665 16.8607 57.5602 16.7674C58.2621 16.543 58.7227 16.047 59.0213 15.389C59.0786 15.2625 59.1276 15.1309 59.19 14.9959H62.1053C61.9701 15.6334 61.7301 16.244 61.395 16.8028C60.7146 17.9575 59.6075 18.7985 58.3127 19.1445C56.5007 19.6507 54.7023 19.6017 52.9646 18.8459C51.3989 18.1711 50.3681 16.9665 49.8552 15.3519C49.2241 13.4363 49.2395 11.3665 49.8991 9.46052C50.6515 7.26728 52.2492 6.02389 54.5032 5.60549C55.7642 5.35567 57.0676 5.42351 58.2958 5.80288C59.0788 6.03052 59.7971 6.43934 60.3927 6.99623C60.9883 7.55313 61.4444 8.24245 61.724 9.00838C62.2051 10.2759 62.3904 11.6366 62.2656 12.9866C62.2588 13.0693 62.2369 13.1553 62.2234 13.2717ZM59.1866 11.4294C59.0989 10.1826 58.8306 9.02863 57.6682 8.4044C57.108 8.08357 56.4694 7.92529 55.8242 7.94735C55.1789 7.9694 54.5526 8.17091 54.0156 8.52925C52.9747 9.18722 52.6845 10.2703 52.5563 11.4294H59.1866Z" fill="white"/>
<path d="M80.1068 5.72852H83.3967V6.01701C83.3967 8.4262 83.3967 10.8354 83.3967 13.2446C83.3789 13.8152 83.4536 14.3849 83.6177 14.9317C83.9551 15.922 84.6299 16.4855 85.6759 16.6019C86.6393 16.7116 87.5419 16.5631 88.296 15.9001C88.9709 15.3096 89.2172 14.5234 89.2745 13.6596C89.288 13.4555 89.2863 13.2496 89.2863 13.0438V5.7302H92.5914V19.1073H89.2863V16.3826L89.2256 16.3607C89.1952 16.3995 89.1514 16.4315 89.1379 16.4754C88.5525 18.203 87.2821 19.0719 85.5309 19.3249C84.6391 19.4614 83.7272 19.3649 82.8838 19.0449C81.5594 18.5387 80.753 17.5501 80.3885 16.2156C80.2194 15.6075 80.1276 14.9806 80.1152 14.3496C80.0849 11.5372 80.1001 8.72482 80.1001 5.9141C80.1068 5.8483 80.1068 5.79769 80.1068 5.72852Z" fill="white"/>
<path d="M136.019 9.89734H133.296C133.281 9.83154 133.264 9.76911 133.252 9.705C133.07 8.73998 132.525 8.18661 131.565 7.99934C130.95 7.87815 130.316 7.89833 129.709 8.05838C129.525 8.10747 129.347 8.17886 129.18 8.27096C128.971 8.36766 128.795 8.52266 128.673 8.71725C128.55 8.91183 128.487 9.1377 128.49 9.36758C128.48 9.59798 128.538 9.82614 128.659 10.023C128.779 10.2198 128.955 10.3763 129.164 10.4726C129.536 10.6457 129.924 10.7803 130.324 10.8742C131.462 11.1644 132.615 11.4056 133.748 11.7177C134.465 11.9045 135.119 12.2797 135.641 12.8042C136.436 13.614 136.63 14.6179 136.505 15.6959C136.314 17.324 135.324 18.3143 133.841 18.8441C131.924 19.5406 129.83 19.5833 127.886 18.9655C126.082 18.4139 125.004 16.9629 124.96 15.124C124.96 15.0531 124.96 14.9823 124.96 14.8996H127.882L127.928 15.1105C127.984 15.4615 128.135 15.7906 128.364 16.0627C128.593 16.3349 128.891 16.5399 129.227 16.6559C130.139 16.9919 131.14 17.0032 132.06 16.6879C132.772 16.4501 133.133 15.9304 133.131 15.237C133.147 15.0106 133.092 14.7848 132.974 14.5908C132.856 14.3968 132.681 14.2441 132.473 14.1539C132.061 13.9803 131.636 13.8409 131.201 13.7372C130.226 13.4892 129.234 13.3002 128.265 13.0269C127.418 12.8123 126.659 12.3408 126.091 11.6772C124.803 10.1183 125.188 7.56238 126.87 6.4472C127.698 5.91894 128.643 5.60312 129.622 5.52773C130.683 5.40396 131.758 5.47139 132.795 5.7268C134.713 6.21269 135.888 7.62312 136.001 9.60716C136.004 9.68477 136.011 9.77924 136.019 9.89734Z" fill="white"/>
<path d="M40.2168 5.72346H43.5049V8.88509L43.5792 8.9104C43.8829 7.8121 44.3873 6.84707 45.3726 6.22115C46.3578 5.59523 47.4342 5.51425 48.5781 5.72852V8.51056C48.2676 8.49369 47.969 8.46669 47.6704 8.45994C46.8346 8.41459 46.0041 8.61897 45.2848 9.04706C44.867 9.30541 44.5088 9.64956 44.2339 10.0568C43.9591 10.4639 43.7739 10.9249 43.6905 11.409C43.5821 11.9479 43.5256 12.4959 43.5218 13.0455C43.5016 14.9772 43.5134 16.909 43.5134 18.8407V19.114H40.2235L40.2168 5.72346Z" fill="white"/>
<path d="M101.462 5.72347H104.75V8.8851L104.809 8.92559C105.548 6.39493 107.203 5.31687 109.818 5.72009V8.52069L109.434 8.49032C108.541 8.41102 107.671 8.47513 106.849 8.8716C105.786 9.37774 105.176 10.2652 104.933 11.3905C104.821 11.9362 104.764 12.4918 104.764 13.0489C104.742 14.9806 104.755 16.9107 104.755 18.8424V19.1174H101.466L101.462 5.72347Z" fill="white"/>
<path d="M95.3819 5.72534H98.6532V19.1058H95.3819V5.72534Z" fill="white"/>
<path d="M159.136 5.58337H162.438V19.1005H159.133L159.136 5.58337Z" fill="white"/>
<path d="M142.402 17.346C142.406 17.7567 142.289 18.1595 142.064 18.5034C141.84 18.8473 141.518 19.1167 141.14 19.2775C140.762 19.4383 140.345 19.4833 139.941 19.4066C139.538 19.33 139.166 19.1352 138.873 18.8471C138.581 18.5589 138.38 18.1903 138.297 17.788C138.215 17.3857 138.253 16.9679 138.408 16.5875C138.563 16.2071 138.827 15.8813 139.168 15.6514C139.508 15.4215 139.909 15.2978 140.32 15.2961C140.591 15.2932 140.861 15.3441 141.112 15.4456C141.364 15.5472 141.593 15.6976 141.787 15.8881C141.98 16.0786 142.134 16.3055 142.24 16.5557C142.345 16.8059 142.4 17.0745 142.402 17.346Z" fill="white"/>
<path d="M97.0065 3.82385C96.6483 3.81281 96.3013 3.69608 96.0093 3.48835C95.7172 3.28062 95.4932 2.99116 95.3652 2.65639C95.2373 2.32162 95.2112 1.95649 95.2902 1.60693C95.3692 1.25736 95.5499 0.938983 95.8094 0.691837C96.069 0.44469 96.3958 0.279814 96.7488 0.21795C97.1018 0.156086 97.4653 0.199997 97.7934 0.344159C98.1215 0.488321 98.3996 0.726296 98.5928 1.02815C98.7861 1.33 98.8857 1.68224 98.8792 2.04057C98.8603 2.52301 98.6542 2.97912 98.3046 3.31207C97.9549 3.64502 97.4893 3.8286 97.0065 3.82385Z" fill="white"/>
<path d="M160.781 3.66692C160.419 3.6559 160.069 3.53828 159.775 3.32885C159.48 3.11943 159.254 2.82753 159.124 2.48987C158.995 2.15221 158.968 1.78385 159.048 1.4311C159.127 1.07834 159.309 0.756937 159.571 0.507283C159.832 0.257629 160.162 0.090868 160.518 0.0279648C160.874 -0.0349384 161.241 0.00882196 161.572 0.153746C161.903 0.29867 162.184 0.538293 162.38 0.842486C162.575 1.14668 162.676 1.50187 162.67 1.86341C162.652 2.35063 162.444 2.81138 162.091 3.14803C161.738 3.48469 161.268 3.6708 160.781 3.66692Z" fill="white"/>
<rect x="12.9458" y="2.44104" width="6.07359" height="18.3081" transform="rotate(45 12.9458 2.44104)" fill="#FB04A4"/>
<rect x="24.8157" y="3.41528" width="6.07359" height="18.3081" transform="rotate(45 24.8157 3.41528)" fill="#FB04A4"/>
</svg>
